<svg width="556.8000122070313px" height="84.99998779296875px" xmlns="http://www.w3.org/2000/svg" viewBox="-28.400006103515636 32.500006103515624 556.8000122070313 84.99998779296875" style="background: rgb(141, 239, 142) none repeat scroll 0% 0%;" preserveAspectRatio="xMidYMid"><defs><filter id="editing-neon" x="-100%" y="-100%" width="300%" height="300%"><feFlood flood-color="#3375e3" result="flood"></feFlood><feComposite operator="in" in="flood" in2="SourceAlpha" result="color"></feComposite><feFlood flood-color="#3375e3" result="flood2"></feFlood><feComposite operator="in" in="flood2" in2="SourceAlpha" result="color2"></feComposite><feMorphology operator="dilate" radius="2" in="color" result="dilate"></feMorphology><feGaussianBlur stdDeviation="6" in="color" result="blur1"></feGaussianBlur><feGaussianBlur stdDeviation="2.5" in="color" result="blur2"></feGaussianBlur><feGaussianBlur stdDeviation="1" in="SourceAlpha" result="blur3"></feGaussianBlur><feGaussianBlur stdDeviation="6" in="dilate" result="blur4"></feGaussianBlur><feConvolveMatrix in="color2" result="conv" order="3,3" divisor="1" kernelMatrix="1 1 1  1 1 1  1 1 1"></feConvolveMatrix><feMerge><feMergeNode in="blur1"></feMergeNode><feMergeNode in="blur2"></feMergeNode><feMergeNode in="blur4"></feMergeNode><feMergeNode in="blur3"></feMergeNode><feMergeNode in="blur3"></feMergeNode><feMergeNode in="blur3"></feMergeNode><feMergeNode in="blur3"></feMergeNode><feMergeNode in="conv"></feMergeNode><feMergeNode in="SourceGraphic"></feMergeNode></feMerge></filter></defs><g filter="url(#editing-neon)"><g transform="translate(54.99000138044357, 87.89500045776367)"><path d="M15.23 0L5.70 0L1.66-12.54L0.32-12.54L0.32-17.79L10.21-17.79L10.21-12.54L8.86-12.54L10.56-6.21L10.88-6.21L12.58-12.54L11.23-12.54L11.23-17.79L20.51-17.79L20.51-12.54L19.17-12.54L15.23 0ZM33.89 0.45L33.89 0.45Q27.84 0.45 24.56-2.62L24.56-2.62L24.56-2.62Q21.28-5.70 21.28-12.45L21.28-12.45L21.28-12.45Q21.28-25.34 33.82-25.34L33.82-25.34L33.82-25.34Q36.86-25.34 39.47-24.61L39.47-24.61L39.47-24.61Q42.08-23.87 43.36-22.98L43.36-22.98L43.36-14.98L35.68-14.98L35.68-17.28L35.68-17.28Q35.68-18.50 35.14-19.07L35.14-19.07L35.14-19.07Q34.59-19.65 33.50-19.65L33.50-19.65L33.50-19.65Q32.42-19.65 31.87-19.07L31.87-19.07L31.87-19.07Q31.33-18.50 31.33-17.28L31.33-17.28L31.33-7.62L31.33-7.62Q31.33-6.40 31.87-5.82L31.87-5.82L31.87-5.82Q32.42-5.25 33.50-5.25L33.50-5.25L33.50-5.25Q34.59-5.25 35.14-5.82L35.14-5.82L35.14-5.82Q35.68-6.40 35.68-7.62L35.68-7.62L35.68-10.21L43.36-10.21L43.36-1.92L43.36-1.92Q42.05-1.02 39.47-0.29L39.47-0.29L39.47-0.29Q36.90 0.45 33.89 0.45L33.89 0.45ZM54.05 0.45L54.05 0.45Q49.50 0.45 46.94-1.94L46.94-1.94L46.94-1.94Q44.38-4.32 44.38-8.90L44.38-8.90L44.38-8.90Q44.38-13.47 46.94-15.86L46.94-15.86L46.94-15.86Q49.50-18.24 54.05-18.24L54.05-18.24L54.05-18.24Q58.56-18.24 60.56-15.89L60.56-15.89L60.56-15.89Q62.56-13.54 62.56-10.05L62.56-10.05L62.56-7.74L52.19-7.74L52.19-7.55L52.19-7.55Q52.19-6.37 52.90-5.81L52.90-5.81L52.90-5.81Q53.60-5.25 55.23-5.25L55.23-5.25L55.23-5.25Q57.18-5.25 58.94-5.54L58.94-5.54L58.94-5.54Q60.70-5.82 62.02-6.27L62.02-6.27L62.02-1.15L62.02-1.15Q60.90-0.54 58.74-0.05L58.74-0.05L58.74-0.05Q56.58 0.45 54.05 0.45L54.05 0.45ZM52.19-11.26L55.90-11.26L55.90-11.65L55.90-11.65Q55.90-12.74 55.44-13.22L55.44-13.22L55.44-13.22Q54.98-13.70 54.05-13.70L54.05-13.70L54.05-13.70Q53.12-13.70 52.66-13.20L52.66-13.20L52.66-13.20Q52.19-12.70 52.19-11.65L52.19-11.65L52.19-11.26ZM83.36-5.25L84.77-5.25L84.77 0L74.66 0L74.66-5.25L76-5.25L76-10.50L76-10.50Q76-11.55 75.55-12.05L75.55-12.05L75.55-12.05Q75.10-12.54 74.21-12.54L74.21-12.54L74.21-12.54Q72.29-12.54 72.29-10.50L72.29-10.50L72.29-5.25L73.63-5.25L73.63 0L63.52 0L63.52-5.25L64.93-5.25L64.93-12.54L63.52-12.54L63.52-17.79L72.29-17.79L72.29-15.30L72.29-15.30Q74.59-18.24 78.05-18.24L78.05-18.24L78.05-18.24Q80.70-18.24 82.03-16.58L82.03-16.58L82.03-16.58Q83.36-14.91 83.36-12L83.36-12L83.36-5.25ZM93.70 0.45L93.70 0.45Q90.30 0.45 88.59-1.20L88.59-1.20L88.59-1.20Q86.88-2.85 86.88-6.75L86.88-6.75L86.88-12.54L85.47-12.54L85.47-17.79L85.47-17.79Q86.69-17.79 87.30-18.42L87.30-18.42L87.30-18.42Q87.90-19.04 87.90-20.13L87.90-20.13L87.90-21.57L94.69-21.57L94.69-17.79L99.01-17.79L99.01-12.54L94.69-12.54L94.69-7.30L94.69-7.30Q94.69-6.24 95.15-5.74L95.15-5.74L95.15-5.74Q95.62-5.25 96.54-5.25L96.54-5.25L96.54-5.25Q97.76-5.25 99.20-5.54L99.20-5.54L99.20-0.51L99.20-0.51Q98.30-0.16 96.78 0.14L96.78 0.14L96.78 0.14Q95.26 0.45 93.70 0.45L93.70 0.45ZM109.76 0.45L109.76 0.45Q105.22 0.45 102.66-1.94L102.66-1.94L102.66-1.94Q100.10-4.32 100.10-8.90L100.10-8.90L100.10-8.90Q100.10-13.47 102.66-15.86L102.66-15.86L102.66-15.86Q105.22-18.24 109.76-18.24L109.76-18.24L109.76-18.24Q114.27-18.24 116.27-15.89L116.27-15.89L116.27-15.89Q118.27-13.54 118.27-10.05L118.27-10.05L118.27-7.74L107.90-7.74L107.90-7.55L107.90-7.55Q107.90-6.37 108.61-5.81L108.61-5.81L108.61-5.81Q109.31-5.25 110.94-5.25L110.94-5.25L110.94-5.25Q112.90-5.25 114.66-5.54L114.66-5.54L114.66-5.54Q116.42-5.82 117.73-6.27L117.73-6.27L117.73-1.15L117.73-1.15Q116.61-0.54 114.45-0.05L114.45-0.05L114.45-0.05Q112.29 0.45 109.76 0.45L109.76 0.45ZM107.90-11.26L111.62-11.26L111.62-11.65L111.62-11.65Q111.62-12.74 111.15-13.22L111.15-13.22L111.15-13.22Q110.69-13.70 109.76-13.70L109.76-13.70L109.76-13.70Q108.83-13.70 108.37-13.20L108.37-13.20L108.37-13.20Q107.90-12.70 107.90-11.65L107.90-11.65L107.90-11.26ZM132.90-18.24L132.90-18.24Q133.54-18.24 134.11-18.11L134.11-18.11L134.11-18.11Q134.69-17.98 135.07-17.79L135.07-17.79L135.07-11.68L135.07-11.68Q133.76-12.22 132.26-12.22L132.26-12.22L132.26-12.22Q130.24-12.22 129.15-11.17L129.15-11.17L129.15-11.17Q128.06-10.11 128.06-8.03L128.06-8.03L128.06-5.25L130.94-5.25L130.94 0L119.30 0L119.30-5.25L120.70-5.25L120.70-12.54L119.30-12.54L119.30-17.79L128.06-17.79L128.06-15.46L128.06-15.46Q128.96-16.80 130.11-17.52L130.11-17.52L130.11-17.52Q131.26-18.24 132.90-18.24L132.90-18.24ZM167.36 0L145.76 0L145.76-5.25L147.36-5.25L147.36-19.65L145.76-19.65L145.76-24.90L167.36-24.90L167.36-15.23L160.19-15.23L160.19-19.65L156.32-19.65L156.32-14.59L159.14-14.59L159.14-10.94L156.32-10.94L156.32-5.25L160.19-5.25L160.19-10.30L167.36-10.30L167.36 0ZM183.17 0L173.63 0L169.60-12.54L168.26-12.54L168.26-17.79L178.14-17.79L178.14-12.54L176.80-12.54L178.50-6.21L178.82-6.21L180.51-12.54L179.17-12.54L179.17-17.79L188.45-17.79L188.45-12.54L187.10-12.54L183.17 0ZM198.88 0.45L198.88 0.45Q194.34 0.45 191.78-1.94L191.78-1.94L191.78-1.94Q189.22-4.32 189.22-8.90L189.22-8.90L189.22-8.90Q189.22-13.47 191.78-15.86L191.78-15.86L191.78-15.86Q194.34-18.24 198.88-18.24L198.88-18.24L198.88-18.24Q203.39-18.24 205.39-15.89L205.39-15.89L205.39-15.89Q207.39-13.54 207.39-10.05L207.39-10.05L207.39-7.74L197.02-7.74L197.02-7.55L197.02-7.55Q197.02-6.37 197.73-5.81L197.73-5.81L197.73-5.81Q198.43-5.25 200.06-5.25L200.06-5.25L200.06-5.25Q202.02-5.25 203.78-5.54L203.78-5.54L203.78-5.54Q205.54-5.82 206.85-6.27L206.85-6.27L206.85-1.15L206.85-1.15Q205.73-0.54 203.57-0.05L203.57-0.05L203.57-0.05Q201.41 0.45 198.88 0.45L198.88 0.45ZM197.02-11.26L200.74-11.26L200.74-11.65L200.74-11.65Q200.74-12.74 200.27-13.22L200.27-13.22L200.27-13.22Q199.81-13.70 198.88-13.70L198.88-13.70L198.88-13.70Q197.95-13.70 197.49-13.20L197.49-13.20L197.49-13.20Q197.02-12.70 197.02-11.65L197.02-11.65L197.02-11.26ZM228.19-5.25L229.60-5.25L229.60 0L219.49 0L219.49-5.25L220.83-5.25L220.83-10.50L220.83-10.50Q220.83-11.55 220.38-12.05L220.38-12.05L220.38-12.05Q219.94-12.54 219.04-12.54L219.04-12.54L219.04-12.54Q217.12-12.54 217.12-10.50L217.12-10.50L217.12-5.25L218.46-5.25L218.46 0L208.35 0L208.35-5.25L209.76-5.25L209.76-12.54L208.35-12.54L208.35-17.79L217.12-17.79L217.12-15.30L217.12-15.30Q219.42-18.24 222.88-18.24L222.88-18.24L222.88-18.24Q225.54-18.24 226.86-16.58L226.86-16.58L226.86-16.58Q228.19-14.91 228.19-12L228.19-12L228.19-5.25ZM238.53 0.45L238.53 0.45Q235.14 0.45 233.42-1.20L233.42-1.20L233.42-1.20Q231.71-2.85 231.71-6.75L231.71-6.75L231.71-12.54L230.30-12.54L230.30-17.79L230.30-17.79Q231.52-17.79 232.13-18.42L232.13-18.42L232.13-18.42Q232.74-19.04 232.74-20.13L232.74-20.13L232.74-21.57L239.52-21.57L239.52-17.79L243.84-17.79L243.84-12.54L239.52-12.54L239.52-7.30L239.52-7.30Q239.52-6.24 239.98-5.74L239.98-5.74L239.98-5.74Q240.45-5.25 241.38-5.25L241.38-5.25L241.38-5.25Q242.59-5.25 244.03-5.54L244.03-5.54L244.03-0.51L244.03-0.51Q243.14-0.16 241.62 0.14L241.62 0.14L241.62 0.14Q240.10 0.45 238.53 0.45L238.53 0.45ZM252.83 0.45L252.83 0.45Q248.80 0.45 245.06-0.83L245.06-0.83L245.06-5.57L250.24-5.57L250.24-5.25L250.24-5.25Q250.24-3.71 252.19-3.71L252.19-3.71L252.19-3.71Q253.92-3.71 253.92-4.90L253.92-4.90L253.92-4.90Q253.92-5.54 253.42-5.86L253.42-5.86L253.42-5.86Q252.93-6.18 251.68-6.40L251.68-6.40L250.08-6.69L250.08-6.69Q245.06-7.58 245.06-12.38L245.06-12.38L245.06-12.38Q245.06-15.17 247.17-16.70L247.17-16.70L247.17-16.70Q249.28-18.24 252.86-18.24L252.86-18.24L252.86-18.24Q256.86-18.24 259.62-16.90L259.62-16.90L259.62-12.45L254.75-12.45L254.75-12.77L254.75-12.77Q254.75-13.41 254.32-13.74L254.32-13.74L254.32-13.74Q253.89-14.08 253.06-14.08L253.06-14.08L253.06-14.08Q251.46-14.08 251.46-13.06L251.46-13.06L251.46-13.06Q251.46-12.51 251.90-12.22L251.90-12.22L251.90-12.22Q252.35-11.94 253.54-11.68L253.54-11.68L255.36-11.33L255.36-11.33Q258.21-10.78 259.42-9.31L259.42-9.31L259.42-9.31Q260.64-7.84 260.64-5.54L260.64-5.54L260.64-5.54Q260.64-2.62 258.61-1.09L258.61-1.09L258.61-1.09Q256.58 0.45 252.83 0.45L252.83 0.45ZM271.33 0L271.33-5.25L272.93-5.25L272.93-19.65L271.33-19.65L271.33-24.90L286.02-24.90L286.02-24.90Q290.02-24.90 292.26-23.26L292.26-23.26L292.26-23.26Q294.50-21.63 294.50-18.59L294.50-18.59L294.50-18.59Q294.50-16.70 293.60-15.41L293.60-15.41L293.60-15.41Q292.70-14.11 291.50-13.46L291.50-13.46L291.50-13.46Q290.30-12.80 289.18-12.58L289.18-12.58L289.18-12.26L289.18-12.26Q291.46-12.03 293.28-10.82L293.28-10.82L293.28-10.82Q295.10-9.60 295.10-6.46L295.10-6.46L295.10-6.46Q295.10-3.10 292.58-1.55L292.58-1.55L292.58-1.55Q290.05 0 286.02 0L286.02 0L271.33 0ZM281.89-14.40L283.62-14.40L283.62-14.40Q284.54-14.40 285.01-14.90L285.01-14.90L285.01-14.90Q285.47-15.39 285.47-16.45L285.47-16.45L285.47-17.60L285.47-17.60Q285.47-18.66 285.01-19.15L285.01-19.15L285.01-19.15Q284.54-19.65 283.62-19.65L283.62-19.65L281.89-19.65L281.89-14.40ZM281.89-5.25L283.84-5.25L283.84-5.25Q284.77-5.25 285.23-5.74L285.23-5.74L285.23-5.74Q285.70-6.24 285.70-7.30L285.70-7.30L285.70-8.70L285.70-8.70Q285.70-9.76 285.23-10.26L285.23-10.26L285.23-10.26Q284.77-10.75 283.84-10.75L283.84-10.75L281.89-10.75L281.89-5.25ZM309.73-18.24L309.73-18.24Q310.37-18.24 310.94-18.11L310.94-18.11L310.94-18.11Q311.52-17.98 311.90-17.79L311.90-17.79L311.90-11.68L311.90-11.68Q310.59-12.22 309.09-12.22L309.09-12.22L309.09-12.22Q307.07-12.22 305.98-11.17L305.98-11.17L305.98-11.17Q304.90-10.11 304.90-8.03L304.90-8.03L304.90-5.25L307.78-5.25L307.78 0L296.13 0L296.13-5.25L297.54-5.25L297.54-12.54L296.13-12.54L296.13-17.79L304.90-17.79L304.90-15.46L304.90-15.46Q305.79-16.80 306.94-17.52L306.94-17.52L306.94-17.52Q308.10-18.24 309.73-18.24L309.73-18.24ZM322.46 0.45L322.46 0.45Q317.92 0.45 315.36-1.94L315.36-1.94L315.36-1.94Q312.80-4.32 312.80-8.90L312.80-8.90L312.80-8.90Q312.80-13.47 315.36-15.86L315.36-15.86L315.36-15.86Q317.92-18.24 322.46-18.24L322.46-18.24L322.46-18.24Q327.07-18.24 329.60-15.82L329.60-15.82L329.60-15.82Q332.13-13.41 332.13-8.90L332.13-8.90L332.13-8.90Q332.13-4.32 329.57-1.94L329.57-1.94L329.57-1.94Q327.01 0.45 322.46 0.45L322.46 0.45ZM322.46-5.25L322.46-5.25Q323.39-5.25 323.86-5.74L323.86-5.74L323.86-5.74Q324.32-6.24 324.32-7.30L324.32-7.30L324.32-10.50L324.32-10.50Q324.32-11.55 323.86-12.05L323.86-12.05L323.86-12.05Q323.39-12.54 322.46-12.54L322.46-12.54L322.46-12.54Q321.54-12.54 321.07-12.05L321.07-12.05L321.07-12.05Q320.61-11.55 320.61-10.50L320.61-10.50L320.61-7.30L320.61-7.30Q320.61-6.24 321.07-5.74L321.07-5.74L321.07-5.74Q321.54-5.25 322.46-5.25L322.46-5.25ZM349.38-9.50L352.45-5.25L353.82-5.25L353.82 0L345.98 0L342.69-6.14L341.92-6.14L341.92 0L333.15 0L333.15-5.25L334.56-5.25L334.56-19.65L333.15-19.65L333.15-24.90L341.92-24.90L341.92-11.90L342.69-11.90L346.66-17.79L353.41-17.79L353.41-12.54L352.10-12.54L349.38-9.50ZM364.38 0.45L364.38 0.45Q359.84 0.45 357.28-1.94L357.28-1.94L357.28-1.94Q354.72-4.32 354.72-8.90L354.72-8.90L354.72-8.90Q354.72-13.47 357.28-15.86L357.28-15.86L357.28-15.86Q359.84-18.24 364.38-18.24L364.38-18.24L364.38-18.24Q368.90-18.24 370.90-15.89L370.90-15.89L370.90-15.89Q372.90-13.54 372.90-10.05L372.90-10.05L372.90-7.74L362.53-7.74L362.53-7.55L362.53-7.55Q362.53-6.37 363.23-5.81L363.23-5.81L363.23-5.81Q363.94-5.25 365.57-5.25L365.57-5.25L365.57-5.25Q367.52-5.25 369.28-5.54L369.28-5.54L369.28-5.54Q371.04-5.82 372.35-6.27L372.35-6.27L372.35-1.15L372.35-1.15Q371.23-0.54 369.07-0.05L369.07-0.05L369.07-0.05Q366.91 0.45 364.38 0.45L364.38 0.45ZM362.53-11.26L366.24-11.26L366.24-11.65L366.24-11.65Q366.24-12.74 365.78-13.22L365.78-13.22L365.78-13.22Q365.31-13.70 364.38-13.70L364.38-13.70L364.38-13.70Q363.46-13.70 362.99-13.20L362.99-13.20L362.99-13.20Q362.53-12.70 362.53-11.65L362.53-11.65L362.53-11.26ZM387.52-18.24L387.52-18.24Q388.16-18.24 388.74-18.11L388.74-18.11L388.74-18.11Q389.31-17.98 389.70-17.79L389.70-17.79L389.70-11.68L389.70-11.68Q388.38-12.22 386.88-12.22L386.88-12.22L386.88-12.22Q384.86-12.22 383.78-11.17L383.78-11.17L383.78-11.17Q382.69-10.11 382.69-8.03L382.69-8.03L382.69-5.25L385.57-5.25L385.57 0L373.92 0L373.92-5.25L375.33-5.25L375.33-12.54L373.92-12.54L373.92-17.79L382.69-17.79L382.69-15.46L382.69-15.46Q383.58-16.80 384.74-17.52L384.74-17.52L384.74-17.52Q385.89-18.24 387.52-18.24L387.52-18.24Z" fill="none" stroke="#dfffff" stroke-width="1"></path></g></g><style>text {
  font-size: 64px;
  font-family: Arial Black;
  dominant-baseline: central;
  text-anchor: middle;
}</style></svg>